<svg xmlns="http://www.w3.org/2000/svg" viewBox="0 0 100 100"><g id="Vrstva_2" data-name="Vrstva 2"><g id="Vrstva_1-2" data-name="Vrstva 1"><rect width="100" height="100" fill="none"/><path d="M21.65,14.33H42.83C65,14.33,78.35,31,78.35,50.05c0,19.26-13.37,35.62-35.52,35.62H21.65ZM42.83,82.46c20.22,0,31.77-14.33,31.77-32.41,0-17.86-11.55-32.51-31.77-32.51H25.08V82.46Z"/><path d="M47.6,29.32a8.07,8.07,0,0,1,8.4,8.3,8.07,8.07,0,0,1-8.4,8.31,8.07,8.07,0,0,1-8.38-8.31A8.06,8.06,0,0,1,47.6,29.32Zm0,3c-3,0-4.86,2.27-4.86,5.27s1.9,5.27,4.86,5.27,4.88-2.28,4.88-5.27S50.56,32.35,47.6,32.35Z"/><path d="M45.41,64.25l-1.25,1.5v4.93H40.74V54.63h3.42V61.8l5.67-7.17h4.22l-6.38,7.53,6.81,8.52H50.27Z"/></g></g></svg>