<?xml version="1.0" encoding="utf-8"?>
<!-- Generator: Adobe Illustrator 25.1.0, SVG Export Plug-In . SVG Version: 6.00 Build 0)  -->
<svg version="1.1" id="Layer_1" xmlns="http://www.w3.org/2000/svg" xmlns:xlink="http://www.w3.org/1999/xlink" x="0px" y="0px"
	 viewBox="0 0 1920 1080" style="enable-background:new 0 0 1920 1080;" xml:space="preserve">
<style type="text/css">
	.st0{fill:#6F6F6E;}
</style>
<g>
	<polygon class="st0" points="23.9,482 122,619.3 122,620.2 134,620.2 134,459.8 122,459.8 122,598 23.9,460.7 23.9,459.8 12,459.8 
		12,620.2 23.9,620.2 	"/>
	<path class="st0" d="M238.9,621.9c45.2,0,80.2-35.8,80.2-81.9s-35-81.9-80.2-81.9c-45.2,0-80.2,35.8-80.2,81.9
		S194.5,621.9,238.9,621.9z M238.9,469.2c37.5,0,67.4,31.6,67.4,70.8s-30.7,70.8-67.4,70.8c-37.5,0-67.4-31.6-67.4-70.8
		S201.4,469.2,238.9,469.2z"/>
	<polygon class="st0" points="355.8,482 453.9,619.3 453.9,620.2 465.8,620.2 465.8,459.8 453.9,459.8 453.9,598 355.8,460.7 
		355.8,459.8 343.8,459.8 343.8,620.2 355.8,620.2 	"/>
	<polygon class="st0" points="1639.7,610 1574.8,610 1574.8,461.5 1562.9,461.5 1562.9,621.9 1639.7,621.9 	"/>
	<rect x="1665.2" y="461.5" class="st0" width="11.9" height="160.4"/>
	<polygon class="st0" points="1730.9,543.4 1788.9,543.4 1788.9,531.5 1730.9,531.5 1730.9,473.5 1800.9,473.5 1800.9,461.5 
		1718.1,461.5 1718.1,621.9 1730.9,621.9 	"/>
	<polygon class="st0" points="1908.4,610 1838.4,610 1838.4,543.4 1892.2,543.4 1892.2,531.5 1838.4,531.5 1838.4,473.5 
		1908.4,473.5 1908.4,461.5 1825.6,461.5 1825.6,621.9 1908.4,621.9 	"/>
	<polygon class="st0" points="610,620.2 622.8,620.2 622.8,471.8 662.9,471.8 662.9,459.8 569.9,459.8 569.9,471.8 610,471.8 	"/>
	<path class="st0" d="M747.3,621.9c45.2,0,80.2-35.8,80.2-81.9s-35-81.9-80.2-81.9c-45.2,0-80.2,35.8-80.2,81.9
		S703,621.9,747.3,621.9z M747.3,469.2c37.5,0,67.4,31.6,67.4,70.8s-30.7,70.8-67.4,70.8c-37.5,0-67.4-31.6-67.4-70.8
		S710.6,469.2,747.3,469.2z"/>
	<rect x="1258.3" y="461.5" class="st0" width="11.9" height="160.4"/>
	<path class="st0" d="M1375.2,623.6c19.6,0,35.8-5.1,47.8-16.2l0,0v-13.6l-1.7,0.9c-12.8,11.1-28.2,17.1-45.2,17.1
		c-37.5,0-68.2-31.6-68.2-70.8c0-39.2,30.7-70.8,68.2-70.8c17.9,0,32.4,6,45.2,17.1l1.7,0.9v-13.6l0,0
		c-11.9-11.1-28.2-16.2-47.8-16.2c-45.2,0-80.2,35.8-80.2,81.9C1295.9,587.8,1330.8,623.6,1375.2,623.6z"/>
	<polygon class="st0" points="800.2,757.5 799.4,758.4 816.4,758.4 1026.3,548.5 1235.3,758.4 1252.4,758.4 1034.8,540 
		1252.4,322.5 1252.4,321.6 1235.3,321.6 1026.3,531.5 816.4,321.6 799.4,321.6 1017.8,540 	"/>
</g>
</svg>
